<?xml version="1.0" encoding="UTF-8"?>
<svg xmlns="http://www.w3.org/2000/svg" width="200mm" height="200mm" viewBox="0 0 1000 1000">
  <rect width="1000" height="1000" fill="#ffffff"/>
  <rect x="15" y="15" width="970" height="970" rx="28" fill="none" stroke="#111111" stroke-width="30"/>
  <rect x="55" y="55" width="235" height="235" rx="24" fill="#ed1c24" stroke="#111111" stroke-width="18"/>
  <rect x="710" y="55" width="235" height="235" rx="24" fill="#00a651" stroke="#111111" stroke-width="18"/>
  <rect x="710" y="710" width="235" height="235" rx="24" fill="#0057e7" stroke="#111111" stroke-width="18"/>
  <rect x="55" y="710" width="235" height="235" rx="24" fill="#ffd500" stroke="#111111" stroke-width="18"/>
  <g fill="#111111">
    <rect x="350" y="345" width="80" height="80"/><rect x="460" y="345" width="80" height="80"/>
    <rect x="570" y="345" width="80" height="80"/><rect x="350" y="455" width="80" height="80"/>
    <rect x="570" y="455" width="80" height="80"/><rect x="350" y="565" width="80" height="80"/>
    <rect x="460" y="565" width="80" height="80"/><rect x="570" y="565" width="80" height="80"/>
  </g>
  <text x="500" y="500" text-anchor="middle" dominant-baseline="middle"
        font-family="Arial, sans-serif" font-weight="bold" font-size="62" fill="#111111">LT1</text>
  <text x="500" y="680" text-anchor="middle" font-family="Arial, sans-serif"
        font-weight="bold" font-size="45" fill="#111111">ELEMENT 800205</text>
  <text x="500" y="735" text-anchor="middle" font-family="Arial, sans-serif"
        font-size="31" fill="#333333">SEMANA 6 · 20 × 20 cm</text>
</svg>
